<?xml version="1.0" encoding="UTF-8" standalone="no"?>
<!DOCTYPE svg PUBLIC "-//W3C//DTD SVG 1.1//EN"
 "http://www.w3.org/Graphics/SVG/1.1/DTD/svg11.dtd">
<!-- Generated by graphviz version 13.0.1 (0)
 -->
<!-- Pages: 1 -->
<svg width="422pt" height="188pt"
 viewBox="0.00 0.00 422.00 188.00" xmlns="http://www.w3.org/2000/svg" xmlns:xlink="http://www.w3.org/1999/xlink">
<g id="graph0" class="graph" transform="scale(1 1) rotate(0) translate(4 184)">
<polygon fill="white" stroke="none" points="-4,4 -4,-184 418,-184 418,4 -4,4"/>
<!-- dotgv -->
<g id="node1" class="node">
<title>dotgv</title>
<polygon fill="none" stroke="black" points="228,-180 180,-180 180,-144 234,-144 234,-174 228,-180"/>
<polyline fill="none" stroke="black" points="228,-180 228,-174"/>
<polyline fill="none" stroke="black" points="234,-174 228,-174"/>
<text xml:space="preserve" text-anchor="middle" x="207" y="-157.32" font-family="Times,serif" font-size="14.00">.gv</text>
</g>
<!-- DOT -->
<g id="node2" class="node">
<title>DOT</title>
<text xml:space="preserve" text-anchor="middle" x="207" y="-85.33" font-family="Times,serif" font-size="14.00">DOT</text>
</g>
<!-- dotgv&#45;&gt;DOT -->
<g id="edge1" class="edge">
<title>dotgv&#45;&gt;DOT</title>
<path fill="none" stroke="black" d="M207,-143.7C207,-136.21 207,-127.26 207,-118.88"/>
<polygon fill="black" stroke="black" points="210.5,-119.14 207,-109.14 203.5,-119.14 210.5,-119.14"/>
</g>
<!-- dotjpg -->
<g id="node3" class="node">
<title>dotjpg</title>
<polygon fill="none" stroke="black" points="48,-36 0,-36 0,0 54,0 54,-30 48,-36"/>
<polyline fill="none" stroke="black" points="48,-36 48,-30"/>
<polyline fill="none" stroke="black" points="54,-30 48,-30"/>
<text xml:space="preserve" text-anchor="middle" x="27" y="-13.32" font-family="Times,serif" font-size="14.00">.jpg</text>
</g>
<!-- DOT&#45;&gt;dotjpg -->
<g id="edge2" class="edge">
<title>DOT&#45;&gt;dotjpg</title>
<path fill="none" stroke="black" d="M180.19,-79.93C153.16,-70.62 110.1,-55.31 64.98,-36.66"/>
<polygon fill="black" stroke="black" points="66.38,-33.46 55.8,-32.83 63.68,-39.91 66.38,-33.46"/>
</g>
<!-- dotpng -->
<g id="node4" class="node">
<title>dotpng</title>
<polygon fill="none" stroke="black" points="120,-36 72,-36 72,0 126,0 126,-30 120,-36"/>
<polyline fill="none" stroke="black" points="120,-36 120,-30"/>
<polyline fill="none" stroke="black" points="126,-30 120,-30"/>
<text xml:space="preserve" text-anchor="middle" x="99" y="-13.32" font-family="Times,serif" font-size="14.00">.png</text>
</g>
<!-- DOT&#45;&gt;dotpng -->
<g id="edge3" class="edge">
<title>DOT&#45;&gt;dotpng</title>
<path fill="none" stroke="black" d="M180.86,-72.05C167.13,-63.16 150.1,-52.12 135.14,-42.42"/>
<polygon fill="black" stroke="black" points="137.22,-39.6 126.92,-37.1 133.41,-45.47 137.22,-39.6"/>
</g>
<!-- dotpdf -->
<g id="node5" class="node">
<title>dotpdf</title>
<polygon fill="none" stroke="black" points="192,-36 144,-36 144,0 198,0 198,-30 192,-36"/>
<polyline fill="none" stroke="black" points="192,-36 192,-30"/>
<polyline fill="none" stroke="black" points="198,-30 192,-30"/>
<text xml:space="preserve" text-anchor="middle" x="171" y="-13.32" font-family="Times,serif" font-size="14.00">.pdf</text>
</g>
<!-- DOT&#45;&gt;dotpdf -->
<g id="edge4" class="edge">
<title>DOT&#45;&gt;dotpdf</title>
<path fill="none" stroke="black" d="M198.29,-72.05C194.32,-64.35 189.53,-55.03 185.07,-46.36"/>
<polygon fill="black" stroke="black" points="188.26,-44.91 180.58,-37.62 182.04,-48.11 188.26,-44.91"/>
</g>
<!-- dotbmp -->
<g id="node6" class="node">
<title>dotbmp</title>
<polygon fill="none" stroke="black" points="264,-36 216,-36 216,0 270,0 270,-30 264,-36"/>
<polyline fill="none" stroke="black" points="264,-36 264,-30"/>
<polyline fill="none" stroke="black" points="270,-30 264,-30"/>
<text xml:space="preserve" text-anchor="middle" x="243" y="-13.32" font-family="Times,serif" font-size="14.00">.bmp</text>
</g>
<!-- DOT&#45;&gt;dotbmp -->
<g id="edge5" class="edge">
<title>DOT&#45;&gt;dotbmp</title>
<path fill="none" stroke="black" d="M215.71,-72.05C219.68,-64.35 224.47,-55.03 228.93,-46.36"/>
<polygon fill="black" stroke="black" points="231.96,-48.11 233.42,-37.62 225.74,-44.91 231.96,-48.11"/>
</g>
<!-- dotgif -->
<g id="node7" class="node">
<title>dotgif</title>
<polygon fill="none" stroke="black" points="336,-36 288,-36 288,0 342,0 342,-30 336,-36"/>
<polyline fill="none" stroke="black" points="336,-36 336,-30"/>
<polyline fill="none" stroke="black" points="342,-30 336,-30"/>
<text xml:space="preserve" text-anchor="middle" x="315" y="-13.32" font-family="Times,serif" font-size="14.00">.gif</text>
</g>
<!-- DOT&#45;&gt;dotgif -->
<g id="edge6" class="edge">
<title>DOT&#45;&gt;dotgif</title>
<path fill="none" stroke="black" d="M233.14,-72.05C246.87,-63.16 263.9,-52.12 278.86,-42.42"/>
<polygon fill="black" stroke="black" points="280.59,-45.47 287.08,-37.1 276.78,-39.6 280.59,-45.47"/>
</g>
<!-- dotsvg -->
<g id="node8" class="node">
<title>dotsvg</title>
<polygon fill="none" stroke="black" points="408,-36 360,-36 360,0 414,0 414,-30 408,-36"/>
<polyline fill="none" stroke="black" points="408,-36 408,-30"/>
<polyline fill="none" stroke="black" points="414,-30 408,-30"/>
<text xml:space="preserve" text-anchor="middle" x="387" y="-13.32" font-family="Times,serif" font-size="14.00">.svg</text>
</g>
<!-- DOT&#45;&gt;dotsvg -->
<g id="edge7" class="edge">
<title>DOT&#45;&gt;dotsvg</title>
<path fill="none" stroke="black" d="M233.81,-79.93C260.84,-70.62 303.9,-55.31 349.02,-36.66"/>
<polygon fill="black" stroke="black" points="350.32,-39.91 358.2,-32.83 347.62,-33.46 350.32,-39.91"/>
</g>
</g>
</svg>
